<svg width="120" height="120" viewBox="0 0 120 120" fill="none" xmlns="http://www.w3.org/2000/svg">
  <rect width="120" height="120" rx="20" fill="#3B82F6" />
  <path d="M35 35C35 33.8954 35.8954 33 37 33H83C84.1046 33 85 33.8954 85 35V47C85 48.1046 84.1046 49 83 49H37C35.8954 49 35 48.1046 35 47V35Z" fill="white" />
  <path d="M60 43L85 68V85C85 86.1046 84.1046 87 83 87H37C35.8954 87 35 86.1046 35 85V68L60 43Z" fill="white" />
  <path d="M60 55L45 70H75L60 55Z" fill="#3B82F6" />
  <path d="M60 41C61.1046 41 62 40.1046 62 39C62 37.8954 61.1046 37 60 37C58.8954 37 58 37.8954 58 39C58 40.1046 58.8954 41 60 41Z" fill="#3B82F6" />
</svg> 